<?xml version="1.0" standalone="no"?>
<!DOCTYPE svg PUBLIC "-//W3C//DTD SVG 20010904//EN"
 "http://www.w3.org/TR/2001/REC-SVG-20010904/DTD/svg10.dtd">
<svg version="1.0" xmlns="http://www.w3.org/2000/svg"
 width="512.000000pt" height="512.000000pt" viewBox="0 0 512.000000 512.000000"
 preserveAspectRatio="xMidYMid meet">
<metadata>
Created by potrace 1.14, written by Peter Selinger 2001-2017
</metadata>
<g transform="translate(0.000000,512.000000) scale(0.100000,-0.100000)"
fill="#000000" stroke="none">
<path d="M2389 4736 c-2 -2 -38 -6 -79 -10 -71 -5 -100 -9 -160 -21 -14 -3
-38 -8 -55 -11 -170 -30 -449 -131 -608 -221 -33 -18 -61 -33 -64 -33 -11 0
-210 -136 -280 -193 -99 -78 -271 -249 -350 -350 -283 -355 -449 -773 -489
-1232 -11 -132 -6 -376 10 -461 2 -11 7 -44 11 -74 10 -83 50 -243 85 -350
117 -351 294 -638 554 -895 332 -329 733 -538 1186 -619 152 -27 192 -30 385
-31 211 0 285 6 431 35 54 11 113 23 129 26 17 3 89 25 162 49 567 186 1045
603 1307 1138 104 213 174 428 206 637 6 41 14 86 17 100 12 59 10 440 -3 540
-74 579 -364 1104 -809 1470 -258 212 -631 395 -925 454 -121 24 -182 35 -225
41 -58 7 -429 17 -436 11z"/>
</g>
</svg>
